<svg xmlns="http://www.w3.org/2000/svg" xmlns:xlink="http://www.w3.org/1999/xlink" width="500" zoomAndPan="magnify" viewBox="0 0 375 374.999991" height="500" preserveAspectRatio="xMidYMid meet" version="1.0"><defs><g/><clipPath id="055719e4b9"><path d="M 0 37.5 L 375 37.5 L 375 258 L 0 258 Z M 0 37.5 " clip-rule="nonzero"/></clipPath></defs><path fill="#ff9b9b" d="M 211.648438 220.933594 C 214.4375 216.574219 217.621094 212.378906 220.023438 207.851562 C 225.714844 197.121094 225.324219 186.050781 220.1875 175.320312 C 216.617188 167.828125 212.207031 160.671875 207.851562 153.574219 C 201.710938 143.625 195.175781 133.839844 191.378906 122.660156 C 189.371094 116.792969 188.199219 110.699219 186.746094 105.222656 C 186.410156 122.214844 178.09375 136.75 169.328125 151.226562 C 163.96875 160.113281 158.496094 169.058594 154.253906 178.503906 C 148.390625 191.53125 151.292969 203.773438 160.058594 214.726562 C 161.566406 216.574219 163.128906 218.363281 165.25 220.875 C 160.28125 219.089844 156.765625 216.515625 153.695312 213.386719 C 144.089844 203.492188 141.078125 191.304688 142.082031 177.945312 C 143.253906 162.238281 149.226562 148.207031 158.160156 135.40625 C 167.597656 121.933594 177.3125 108.742188 186.914062 95.382812 C 187.027344 95.269531 187.25 95.160156 186.746094 95.4375 C 195.679688 106.785156 204.5 118.132812 213.488281 129.3125 C 223.316406 141.5 230.460938 154.804688 232.640625 170.511719 C 234.816406 186.050781 232.304688 200.417969 221.695312 212.605469 C 218.847656 215.902344 215.21875 218.472656 211.925781 221.4375 C 211.925781 221.269531 211.816406 221.101562 211.648438 220.933594 Z M 211.648438 220.933594 " fill-opacity="1" fill-rule="nonzero"/><path fill="#ff9b9b" d="M 198.75 225.851562 C 204.835938 213.554688 203.273438 201.03125 199.699219 188.679688 C 196.628906 178.167969 192.550781 167.941406 188.921875 157.65625 C 188.699219 156.984375 188.308594 156.367188 187.972656 155.753906 C 187.695312 155.808594 187.417969 155.808594 187.417969 155.921875 C 182.222656 168.441406 177.085938 181.019531 174.351562 194.378906 C 172.175781 205.058594 172.453125 215.453125 177.644531 225.347656 C 177.8125 225.628906 177.8125 226.019531 178.035156 226.914062 C 165.976562 218.25 156.875 208.578125 158.273438 192.816406 C 158.886719 186.21875 161.175781 180.070312 164.582031 174.480469 C 169.328125 166.710938 174.6875 159.332031 179.320312 151.503906 C 182.054688 146.921875 183.953125 141.835938 186.300781 137.027344 C 186.691406 136.246094 187.359375 135.628906 187.917969 134.960938 C 188.476562 135.519531 189.371094 135.964844 189.480469 136.636719 C 191.324219 146.585938 198.023438 153.796875 203.496094 161.679688 C 207.960938 168.164062 212.429688 174.648438 215.109375 182.195312 C 218.683594 192.257812 217.621094 201.816406 212.207031 210.871094 C 208.742188 216.683594 204.222656 221.714844 198.75 225.851562 Z M 198.75 225.851562 " fill-opacity="1" fill-rule="nonzero"/><path fill="#ff9b9b" d="M 129.183594 174.3125 C 122.597656 167.546875 118.410156 159.277344 114.613281 150.386719 C 115.339844 150.386719 115.785156 150.386719 116.175781 150.386719 C 116.566406 150.386719 116.902344 150.386719 116.789062 150.386719 C 116.789062 144.015625 116.679688 137.699219 116.789062 131.4375 C 117.179688 116.121094 121.980469 102.089844 129.074219 88.675781 C 131.863281 83.421875 134.097656 77.941406 136.722656 72.40625 C 137.054688 72.800781 137.726562 73.414062 138.339844 74.140625 C 143.140625 79.84375 148.277344 85.265625 152.523438 91.359375 C 155.761719 95.996094 158.160156 101.363281 160.339844 106.675781 C 162.292969 111.480469 159.332031 115.171875 155.984375 118.132812 C 148.949219 124.449219 142.695312 131.382812 138.230469 139.765625 C 132.925781 149.71875 130.300781 160.335938 129.855469 171.574219 C 129.796875 172.410156 129.855469 173.25 129.855469 174.089844 C 129.628906 174.144531 129.40625 174.199219 129.183594 174.3125 Z M 132.703125 93.148438 C 132.367188 93.089844 131.976562 93.089844 131.640625 93.035156 C 130.078125 101.140625 128.570312 109.191406 127.007812 117.40625 C 126.503906 117.351562 125.722656 117.238281 124.828125 117.070312 C 124.269531 126.855469 123.65625 136.582031 125.890625 146.082031 C 126.503906 148.765625 127.84375 151.339844 128.847656 153.964844 C 129.128906 153.910156 129.40625 153.851562 129.6875 153.796875 C 132.476562 142.339844 136.832031 131.71875 145.933594 123.613281 C 143.644531 118.191406 141.46875 112.878906 139.234375 107.570312 C 138.171875 108.015625 137.390625 108.351562 136.386719 108.742188 C 135.101562 103.375 133.875 98.289062 132.703125 93.148438 Z M 132.703125 93.148438 " fill-opacity="1" fill-rule="nonzero"/><path fill="#ff9b9b" d="M 238.109375 72.183594 C 242.800781 81.351562 247.769531 90.183594 251.84375 99.40625 C 258.210938 113.773438 259.046875 129.089844 257.929688 144.574219 C 257.820312 146.417969 257.652344 148.261719 257.484375 150.277344 C 258.488281 150.277344 259.269531 150.277344 260.386719 150.277344 C 257.707031 159.777344 252.070312 167.324219 246.484375 175.542969 C 245.703125 170.625 245.089844 166.261719 244.308594 161.902344 C 241.070312 144.183594 232.75 129.3125 219.128906 117.519531 C 213.378906 112.542969 213.433594 110.867188 216.503906 104.046875 C 221.921875 92.027344 230.796875 82.636719 238.109375 72.183594 Z M 230.40625 124.5625 C 240.679688 131.71875 243.695312 142.898438 247.101562 154.078125 C 248.273438 152.398438 249.277344 150.777344 249.78125 148.988281 C 252.738281 139.152344 251.734375 129.089844 251.289062 119.027344 C 251.289062 118.582031 250.785156 117.855469 250.503906 117.855469 C 248.550781 117.910156 248.886719 116.402344 248.71875 115.339844 C 248.441406 113.605469 248.382812 111.816406 248.050781 110.085938 C 246.820312 104.660156 245.480469 99.238281 244.195312 93.761719 C 243.917969 93.816406 243.582031 93.816406 243.304688 93.875 C 242.296875 98.902344 241.292969 103.992188 240.234375 109.246094 C 239.003906 108.40625 238.222656 107.902344 237.21875 107.234375 C 234.929688 113.160156 232.695312 118.804688 230.40625 124.5625 Z M 230.40625 124.5625 " fill-opacity="1" fill-rule="nonzero"/><path fill="#ff9b9b" d="M 327.886719 158.882812 C 326.9375 162.183594 326.269531 165.035156 325.320312 167.773438 C 316.945312 192.089844 299.527344 206.789062 275.519531 214.226562 C 260.277344 218.976562 244.585938 220.039062 228.730469 219.03125 C 227.839844 218.976562 226.945312 218.808594 225.660156 218.695312 C 228.507812 215.679688 231.800781 214.558594 235.429688 214.167969 C 242.1875 213.441406 248.832031 212.378906 255.082031 209.363281 C 263.011719 205.558594 269.992188 200.363281 276.410156 194.492188 C 282.777344 188.679688 288.804688 182.53125 295.003906 176.546875 C 304.160156 167.773438 315.382812 162.796875 327.886719 158.882812 Z M 261.113281 207.90625 C 261.28125 208.1875 261.394531 208.46875 261.558594 208.691406 C 278.589844 211.933594 307.453125 192.648438 308.179688 176.996094 C 292.324219 187.449219 276.746094 197.679688 261.113281 207.90625 Z M 261.113281 207.90625 " fill-opacity="1" fill-rule="nonzero"/><path fill="#ff9b9b" d="M 149.449219 218.695312 C 129.742188 219.648438 111.207031 218.136719 93.285156 211.542969 C 84.238281 208.242188 75.921875 203.546875 68.832031 196.953125 C 57.941406 186.835938 51.46875 174.3125 48.339844 158.773438 C 54.148438 161.0625 59.449219 162.742188 64.308594 165.144531 C 74.078125 170.007812 81.839844 177.554688 89.488281 185.15625 C 95.128906 190.691406 100.710938 196.28125 106.683594 201.425781 C 115.617188 209.136719 126.449219 212.605469 137.949219 214.226562 C 141.800781 214.726562 145.597656 215.789062 149.449219 218.695312 Z M 67.324219 175.820312 C 71.453125 194.492188 99.089844 213.554688 113.441406 208.523438 C 110.3125 206.007812 106.90625 203.324219 103.558594 200.585938 C 99.371094 197.0625 95.683594 192.703125 90.996094 190.132812 C 82.898438 185.773438 74.523438 182.136719 67.324219 175.820312 Z M 67.324219 175.820312 " fill-opacity="1" fill-rule="nonzero"/><path fill="#ff9b9b" d="M 283.222656 87.835938 C 285.957031 99.351562 287.1875 110.585938 286.683594 121.992188 C 285.957031 139.097656 281.492188 155.027344 271.609375 169.167969 C 264.964844 178.671875 256.925781 186.609375 245.535156 190.355469 C 245.144531 190.46875 244.699219 190.578125 243.863281 190.859375 C 245.425781 186.777344 247.714844 183.648438 250.898438 181.523438 C 261.617188 174.480469 266.304688 163.746094 269.320312 152.007812 C 272.949219 137.808594 272.335938 123.554688 268.035156 109.582031 C 267.085938 106.449219 267.476562 104.046875 269.042969 101.476562 C 272.503906 95.773438 277.472656 91.691406 283.222656 87.835938 Z M 269.933594 159.332031 C 273.675781 157.152344 276.1875 153.851562 278.085938 150.109375 C 283 140.605469 283.894531 130.207031 284.171875 119.753906 C 284.339844 114.835938 284.171875 109.972656 284.171875 104.4375 C 280.65625 110.195312 277.527344 115.113281 274.679688 120.203125 C 273.84375 121.65625 273.621094 123.613281 273.5625 125.402344 C 273.507812 131.4375 274.234375 137.476562 273.621094 143.457031 C 273.171875 148.710938 271.273438 153.851562 269.933594 159.332031 Z M 269.933594 159.332031 " fill-opacity="1" fill-rule="nonzero"/><path fill="#ff9b9b" d="M 130.914062 189.238281 C 126.617188 189.183594 122.875 187.394531 119.414062 185.101562 C 109.363281 178.394531 102.496094 169.003906 97.527344 158.214844 C 87.367188 136.078125 86.863281 113.101562 91.890625 89.679688 C 91.945312 89.34375 92.167969 89.011719 92.445312 88.394531 C 98.589844 92.363281 103.949219 96.890625 107.296875 103.433594 C 108.246094 105.277344 108.246094 107.175781 107.578125 109.300781 C 100.710938 130.992188 103.335938 151.785156 114.445312 171.40625 C 116.902344 175.765625 121.421875 178.953125 125.050781 182.640625 C 127.0625 184.710938 129.296875 186.554688 131.417969 188.511719 C 131.304688 188.789062 131.082031 189.015625 130.914062 189.238281 Z M 92.894531 106.394531 C 92.613281 106.507812 92.390625 106.617188 92.113281 106.730469 C 91.441406 116.289062 91.664062 125.792969 93.230469 135.292969 C 94.34375 141.835938 95.742188 148.261719 99.707031 153.742188 C 101.882812 156.761719 103.835938 157.988281 105.734375 157.933594 C 104.785156 154.46875 103.167969 150.890625 102.886719 147.257812 C 102.496094 141.722656 103.109375 136.132812 103.109375 130.597656 C 103.109375 126.910156 103.667969 122.773438 102.160156 119.699219 C 99.929688 114.890625 96.074219 110.8125 92.894531 106.394531 Z M 92.894531 106.394531 " fill-opacity="1" fill-rule="nonzero"/><path fill="#ff9b9b" d="M 307.0625 124.058594 C 305.445312 166.988281 278.644531 199.46875 234.203125 209.136719 C 235.429688 205.167969 237.441406 202.09375 241.070312 200.53125 C 252.628906 195.609375 263.011719 188.957031 271.664062 179.789062 C 282.21875 168.609375 289.140625 155.640625 291.597656 140.382812 C 291.933594 138.203125 292.660156 136.582031 294.5 135.070312 C 299.078125 131.4375 303.320312 127.414062 307.0625 124.058594 Z M 258.097656 195.554688 C 276.242188 191.863281 294.78125 170.847656 294.835938 153.964844 C 288.863281 161.511719 283.390625 169.113281 277.191406 176.101562 C 270.996094 183.089844 264.183594 189.460938 258.097656 195.554688 Z M 258.097656 195.554688 " fill-opacity="1" fill-rule="nonzero"/><path fill="#ff9b9b" d="M 68.550781 122.941406 C 73.242188 127.414062 77.875 131.886719 82.453125 136.46875 C 83.179688 137.195312 83.570312 138.371094 83.738281 139.375 C 86.917969 159.667969 97.082031 175.933594 113.273438 188.175781 C 119.636719 192.984375 127.007812 196.5625 134.097656 200.363281 C 137.78125 202.375 139.960938 205.167969 141.410156 209.082031 C 99.871094 200.808594 69.945312 168.945312 68.550781 122.941406 Z M 80.554688 154.019531 C 82.789062 171.796875 104.785156 195.777344 118.410156 195.554688 C 103.445312 183.925781 94.011719 167.605469 80.554688 154.019531 Z M 80.554688 154.019531 " fill-opacity="1" fill-rule="nonzero"/><path fill="#ff9b9b" d="M 188.699219 170.289062 C 190.597656 176.546875 192.832031 182.753906 194.226562 189.070312 C 196.460938 199.019531 197.464844 209.082031 195.566406 219.253906 C 195.121094 221.605469 194.285156 223.953125 193.222656 226.019531 C 190.765625 230.660156 185.238281 230.882812 182.894531 226.300781 C 181.21875 223 179.992188 219.199219 179.601562 215.511719 C 178.203125 200.585938 180.605469 186.21875 186.523438 172.46875 C 186.859375 171.742188 187.304688 171.070312 187.695312 170.398438 C 188.03125 170.398438 188.367188 170.34375 188.699219 170.289062 Z M 188.699219 170.289062 " fill-opacity="1" fill-rule="nonzero"/><path fill="#ff9b9b" d="M 356.53125 179.175781 C 339.78125 199.96875 319.402344 212.660156 292.433594 215.175781 C 296.902344 212.15625 301.03125 209.808594 304.605469 206.847656 C 309.964844 202.429688 314.878906 197.511719 320.128906 192.871094 C 329.953125 184.152344 340.839844 177.777344 354.6875 178.953125 C 355.023438 179.007812 355.355469 179.0625 356.53125 179.175781 Z M 311.585938 205.167969 C 321.96875 206.175781 342.683594 192.480469 342.292969 185.101562 C 336.875 186.835938 331.347656 188.511719 325.820312 190.300781 C 325.265625 190.46875 324.707031 190.859375 324.316406 191.304688 C 320.015625 195.945312 315.773438 200.53125 311.585938 205.167969 Z M 311.585938 205.167969 " fill-opacity="1" fill-rule="nonzero"/><path fill="#ff9b9b" d="M 82.175781 214.058594 C 59.5625 214.726562 31.980469 198.125 20.425781 178.671875 C 27.625 178.058594 34.269531 179.625 40.636719 182.53125 C 47.167969 185.4375 52.527344 190.078125 57.664062 194.941406 C 65.089844 201.925781 71.957031 209.640625 82.175781 214.058594 Z M 65.425781 204.441406 C 64.699219 203.9375 63.863281 203.492188 63.191406 202.878906 C 60.566406 200.53125 57.328125 198.515625 55.488281 195.667969 C 52.582031 191.136719 48.453125 189.460938 43.59375 188.289062 C 40.246094 187.449219 37.0625 185.882812 33.769531 184.597656 C 34.160156 192.816406 54.871094 206.34375 65.425781 204.441406 Z M 65.425781 204.441406 " fill-opacity="1" fill-rule="nonzero"/><path fill="#ff9b9b" d="M 204.445312 229.988281 C 205.671875 228.648438 206.230469 227.585938 207.125 227.082031 C 212.875 223.953125 218.570312 220.542969 225.605469 221.378906 C 237.105469 222.832031 248.550781 224.398438 259.605469 228.085938 C 264.964844 229.875 270.160156 232 274.738281 236.640625 C 250.839844 236.640625 227.558594 237.703125 204.445312 229.988281 Z M 209.132812 229.765625 C 209.246094 230.042969 209.300781 230.378906 209.414062 230.660156 C 223.984375 233.789062 238.78125 232.28125 253.519531 232.449219 C 252.960938 231.722656 252.347656 231.105469 251.679688 230.769531 C 239.617188 224.902344 227 223.953125 214.046875 227.082031 C 212.316406 227.417969 210.753906 228.816406 209.132812 229.765625 Z M 209.132812 229.765625 " fill-opacity="1" fill-rule="nonzero"/><path fill="#ff9b9b" d="M 102.386719 236.082031 C 103.835938 234.796875 105.175781 233.285156 106.796875 232.28125 C 113.382812 228.03125 120.808594 226.074219 128.402344 224.734375 C 135.4375 223.449219 142.582031 222.722656 149.617188 221.605469 C 153.359375 220.988281 156.765625 221.605469 160.113281 223.28125 C 163.742188 225.125 167.371094 226.914062 171.394531 228.925781 C 165.976562 232.390625 160.449219 234.011719 154.753906 234.515625 C 144.761719 235.410156 134.765625 235.800781 124.71875 236.25 C 118.019531 236.527344 111.316406 236.585938 104.617188 236.753906 C 104.003906 236.753906 103.390625 236.753906 102.777344 236.753906 C 102.664062 236.472656 102.496094 236.304688 102.386719 236.082031 Z M 167.039062 230.269531 C 161.0625 221.769531 128.515625 224.007812 121.757812 233.34375 C 136.832031 231.164062 151.851562 233.566406 167.039062 230.269531 Z M 167.039062 230.269531 " fill-opacity="1" fill-rule="nonzero"/><path fill="#ff9b9b" d="M 167.148438 104.828125 C 163.242188 96.164062 159.164062 87.722656 155.648438 79.058594 C 153.136719 72.910156 153.582031 66.484375 155.816406 60 C 159.890625 61.453125 163.019531 63.96875 165.585938 67.097656 C 171.167969 73.804688 174.519531 81.632812 177.144531 89.792969 C 177.3125 90.351562 177.535156 91.191406 177.253906 91.582031 C 174.351562 95.773438 171.394531 99.910156 168.378906 104.046875 C 168.210938 104.4375 167.597656 104.605469 167.148438 104.828125 Z M 167.761719 99.632812 C 172.566406 96.054688 174.183594 91.859375 172.507812 86.496094 C 170.332031 79.5625 165.585938 74.476562 159.945312 69.390625 C 160.058594 80.457031 163.242188 90.183594 167.761719 99.632812 Z M 167.761719 99.632812 " fill-opacity="1" fill-rule="nonzero"/><path fill="#ff9b9b" d="M 208.800781 104.160156 C 205.28125 99.910156 201.765625 95.773438 198.359375 91.527344 C 197.96875 91.078125 197.914062 90.070312 198.078125 89.457031 C 201.316406 79.730469 205.785156 70.785156 213.15625 63.464844 C 214.496094 62.121094 216.167969 61.058594 217.898438 59.664062 C 222.253906 66.257812 222.644531 73.023438 219.796875 79.953125 C 218.402344 83.308594 216.617188 86.4375 215.109375 89.738281 C 213.042969 94.265625 211.089844 98.847656 208.800781 104.160156 Z M 208.074219 99.183594 C 213.65625 88.84375 217.621094 75.707031 214.550781 69.054688 C 210.976562 74.589844 207.292969 79.675781 204.277344 85.152344 C 201.09375 91.023438 202.378906 94.992188 208.074219 99.183594 Z M 208.074219 99.183594 " fill-opacity="1" fill-rule="nonzero"/><path fill="#ff9b9b" d="M 187.472656 49.097656 C 197.132812 59.046875 196.683594 70.730469 194.339844 83.53125 C 190.261719 79.507812 190.207031 74.476562 188.589844 69.78125 C 184.847656 73.582031 185.070312 79.058594 182.558594 83.253906 C 178.09375 77.605469 179.042969 58.542969 187.472656 49.097656 Z M 187.472656 49.097656 " fill-opacity="1" fill-rule="nonzero"/><path fill="#ff9b9b" d="M 136.5 245.359375 C 139.734375 242.007812 143.757812 240.777344 147.945312 239.882812 C 153.304688 238.765625 158.71875 237.871094 164.023438 236.640625 C 167.988281 235.691406 171.785156 234.125 174.464844 230.714844 C 174.855469 230.210938 175.972656 229.988281 176.585938 230.15625 C 179.433594 230.882812 182.28125 231.777344 185.351562 232.726562 C 184.738281 237.480469 182.390625 241.113281 178.203125 242.902344 C 174.855469 244.296875 171.113281 245.417969 167.539062 245.527344 C 157.546875 245.863281 147.496094 245.640625 137.503906 245.640625 C 137.222656 245.640625 137 245.472656 136.5 245.359375 Z M 155.3125 241.785156 C 162.179688 243.796875 169.105469 244.914062 175.914062 242.0625 C 179.152344 240.722656 181.722656 238.375 182.78125 234.40625 C 172.957031 235.300781 164.078125 238.09375 155.3125 241.785156 Z M 155.3125 241.785156 " fill-opacity="1" fill-rule="nonzero"/><path fill="#ff9b9b" d="M 239.058594 244.914062 C 228.84375 245.359375 219.574219 246.03125 210.308594 246.03125 C 206.34375 246.03125 202.15625 245.082031 198.414062 243.683594 C 193.558594 241.894531 191.101562 237.648438 189.984375 232.390625 C 193.277344 231.664062 196.515625 230.9375 199.753906 230.269531 C 200.144531 230.210938 200.761719 230.324219 200.984375 230.546875 C 206.121094 236.921875 213.710938 237.589844 220.914062 239.15625 C 225.714844 240.164062 230.460938 241.390625 235.207031 242.675781 C 236.378906 242.957031 237.386719 243.90625 239.058594 244.914062 Z M 192.609375 235.300781 C 197.855469 243.683594 210.640625 245.640625 220.804688 241.617188 C 214.4375 239.433594 208.351562 237.085938 202.042969 235.410156 C 199.253906 234.683594 196.070312 235.300781 192.609375 235.300781 Z M 192.609375 235.300781 " fill-opacity="1" fill-rule="nonzero"/><g clip-path="url(#055719e4b9)"><path fill="#ffffff" d="M 37.898438 169.953125 C 35.609375 159.835938 33.320312 149.882812 31.089844 139.992188 C 31.367188 139.824219 31.703125 139.597656 31.980469 139.429688 C 42.199219 148.597656 56.378906 149.324219 67.65625 156.816406 C 60.957031 136.523438 58.613281 115.953125 61.851562 94.207031 C 67.324219 104.101562 72.347656 113.660156 82.453125 120.203125 C 83.570312 103.265625 84.6875 86.828125 85.746094 70.507812 C 94.234375 78.949219 106.070312 84.425781 112.769531 95.941406 C 120.640625 82.75 129.574219 70.453125 128.234375 53.402344 C 134.65625 58.992188 140.351562 63.96875 146.269531 69.109375 C 148.390625 61.058594 152.578125 53.515625 147.832031 44.570312 C 159.222656 48.59375 165.753906 57.148438 172.230469 65.308594 C 175.355469 60.164062 178.59375 55.191406 181.5 49.992188 C 183.339844 46.582031 184.570312 42.894531 186.1875 39.371094 C 186.578125 38.589844 187.472656 38.03125 188.140625 37.359375 C 188.757812 38.085938 189.871094 38.699219 189.929688 39.484375 C 190.65625 44.90625 193.109375 49.433594 196.40625 53.738281 C 199.085938 57.257812 200.984375 61.453125 203.160156 65.308594 C 208.183594 57.929688 215.5 51.949219 222.703125 45.800781 C 223.484375 45.128906 224.265625 44.347656 225.160156 44.011719 C 225.773438 43.789062 226.890625 44.011719 227.390625 44.457031 C 227.726562 44.792969 227.613281 46.078125 227.222656 46.527344 C 224.601562 49.546875 224.65625 52.898438 225.714844 56.476562 C 226.945312 60.5 228.003906 64.636719 229.179688 68.886719 C 235.429688 64.191406 240.457031 57.539062 248.160156 53.90625 C 248.160156 54.96875 248.214844 55.75 248.160156 56.476562 C 247.101562 65.644531 249.390625 73.917969 254.414062 81.632812 C 257.484375 86.328125 260.332031 91.246094 263.234375 95.996094 C 266.136719 90.464844 270.660156 85.824219 275.964844 81.800781 C 281.101562 77.886719 286.125 73.917969 290.925781 70.226562 C 289.140625 86.328125 293.050781 102.648438 293.941406 119.753906 C 303.65625 113.160156 308.847656 103.601562 314.433594 93.371094 C 316.664062 115.113281 314.601562 135.628906 308.625 156.203125 C 320.6875 150.777344 333.136719 147.425781 344.078125 139.765625 C 343.1875 144.742188 342.460938 149.773438 341.34375 154.746094 C 340.226562 159.609375 338.773438 164.417969 337.378906 169.617188 C 345.753906 166.820312 354.296875 167.882812 362.78125 167.546875 C 367.191406 167.382812 371.214844 166.261719 375.066406 163.414062 C 373 167.941406 371.214844 172.578125 368.867188 176.996094 C 360.882812 192.257812 349.664062 204.5 334.363281 212.660156 C 323.589844 218.417969 312.03125 221.9375 299.917969 223 C 291.039062 223.726562 282.105469 223.617188 273.230469 223.839844 C 271.777344 223.894531 270.269531 223.839844 268.261719 223.839844 C 277.417969 230.714844 286.40625 237.3125 291.207031 248.714844 C 276.632812 240.554688 261.839844 242.734375 246.710938 243.964844 C 248.273438 246.871094 249.949219 249.328125 251.007812 252.070312 C 251.621094 253.578125 251.34375 255.480469 251.453125 257.210938 C 250.058594 256.429688 248.550781 255.871094 247.324219 254.863281 C 242.96875 251.230469 238 249.890625 232.472656 250.839844 C 228.394531 251.566406 224.265625 252.402344 220.246094 253.523438 C 207.738281 256.988281 197.578125 253.410156 189.480469 243.460938 C 189.035156 242.902344 188.476562 242.34375 187.972656 241.839844 C 187.917969 241.785156 187.808594 241.785156 187.75 241.785156 C 185.40625 244.019531 183.171875 246.3125 180.773438 248.433594 C 174.464844 254.191406 167.09375 256.039062 158.773438 254.25 C 155.144531 253.464844 151.515625 252.628906 147.945312 251.734375 C 138.675781 249.386719 130.691406 251.621094 124.046875 258.554688 C 123.210938 255.421875 123.824219 253.578125 128.960938 244.296875 C 114.109375 242.511719 99.539062 240.664062 85.246094 248.042969 C 90.382812 235.746094 99.929688 228.480469 111.09375 222.832031 C 111.039062 222.554688 110.984375 222.332031 110.925781 222.050781 C 109.363281 221.996094 107.746094 221.660156 106.238281 221.882812 C 100.820312 222.664062 95.460938 223.894531 89.992188 224.398438 C 68.773438 226.355469 49.734375 220.542969 32.929688 207.574219 C 18.359375 196.335938 8.253906 181.523438 0.546875 164.976562 C 0.382812 164.585938 0.324219 164.140625 0.046875 163.1875 C 5.683594 167.4375 11.601562 168.164062 17.855469 167.996094 C 24.613281 167.828125 31.480469 167.4375 37.898438 169.953125 Z M 211.648438 220.933594 C 211.757812 221.101562 211.925781 221.269531 212.039062 221.4375 C 215.332031 218.527344 218.960938 215.902344 221.808594 212.605469 C 232.417969 200.472656 234.871094 186.050781 232.75 170.511719 C 230.574219 154.859375 223.425781 141.5 213.601562 129.3125 C 204.554688 118.132812 195.789062 106.785156 186.859375 95.4375 C 187.304688 95.160156 187.082031 95.214844 187.027344 95.382812 C 177.421875 108.6875 167.707031 121.933594 158.273438 135.40625 C 149.339844 148.152344 143.421875 162.238281 142.191406 177.945312 C 141.1875 191.304688 144.203125 203.492188 153.804688 213.386719 C 156.875 216.515625 160.449219 219.03125 165.363281 220.875 C 163.242188 218.417969 161.679688 216.628906 160.171875 214.726562 C 151.40625 203.773438 148.5 191.472656 154.363281 178.503906 C 158.605469 169.058594 164.078125 160.113281 169.4375 151.226562 C 178.148438 136.75 186.523438 122.214844 186.859375 105.222656 C 188.308594 110.699219 189.480469 116.792969 191.492188 122.660156 C 195.289062 133.839844 201.820312 143.625 207.960938 153.574219 C 212.316406 160.671875 216.726562 167.828125 220.300781 175.320312 C 225.4375 185.996094 225.828125 197.121094 220.132812 207.851562 C 217.621094 212.378906 214.496094 216.574219 211.648438 220.933594 Z M 198.75 225.851562 C 204.222656 221.714844 208.742188 216.742188 212.261719 210.871094 C 217.675781 201.816406 218.683594 192.199219 215.164062 182.195312 C 212.484375 174.648438 208.019531 168.164062 203.550781 161.679688 C 198.078125 153.796875 191.378906 146.585938 189.539062 136.636719 C 189.425781 136.023438 188.476562 135.519531 187.972656 134.960938 C 187.417969 135.628906 186.746094 136.246094 186.355469 137.027344 C 184.011719 141.835938 182.113281 146.921875 179.375 151.503906 C 174.6875 159.332031 169.328125 166.710938 164.636719 174.480469 C 161.230469 180.070312 158.886719 186.21875 158.328125 192.816406 C 156.933594 208.578125 166.03125 218.304688 178.09375 226.914062 C 177.867188 226.019531 177.867188 225.628906 177.703125 225.347656 C 172.507812 215.453125 172.230469 205.058594 174.40625 194.378906 C 177.199219 181.019531 182.28125 168.441406 187.472656 155.921875 C 187.527344 155.808594 187.75 155.867188 188.03125 155.753906 C 188.367188 156.367188 188.757812 156.984375 188.980469 157.65625 C 192.609375 167.996094 196.683594 178.226562 199.753906 188.679688 C 203.273438 200.976562 204.835938 213.5 198.75 225.851562 Z M 129.183594 174.3125 C 129.40625 174.199219 129.6875 174.144531 129.910156 174.03125 C 129.910156 173.195312 129.855469 172.355469 129.910156 171.519531 C 130.355469 160.28125 132.980469 149.660156 138.285156 139.710938 C 142.75 131.324219 149.003906 124.394531 156.039062 118.078125 C 159.390625 115.058594 162.347656 111.425781 160.394531 106.617188 C 158.214844 101.308594 155.816406 95.996094 152.578125 91.300781 C 148.335938 85.207031 143.140625 79.785156 138.394531 74.085938 C 137.78125 73.359375 137.113281 72.6875 136.777344 72.351562 C 134.207031 77.886719 131.917969 83.421875 129.128906 88.617188 C 122.039062 102.035156 117.234375 116.121094 116.84375 131.382812 C 116.679688 137.699219 116.84375 144.015625 116.84375 150.332031 C 116.957031 150.332031 116.566406 150.332031 116.230469 150.332031 C 115.785156 150.332031 115.394531 150.332031 114.667969 150.332031 C 118.410156 159.332031 122.597656 167.546875 129.183594 174.3125 Z M 238.109375 72.183594 C 230.851562 82.582031 221.921875 92.027344 216.558594 103.992188 C 213.488281 110.867188 213.433594 112.488281 219.183594 117.460938 C 232.863281 129.3125 241.125 144.125 244.363281 161.847656 C 245.144531 166.207031 245.761719 170.625 246.542969 175.488281 C 252.070312 167.269531 257.765625 159.777344 260.445312 150.21875 C 259.328125 150.21875 258.546875 150.21875 257.539062 150.21875 C 257.707031 148.207031 257.875 146.363281 257.988281 144.519531 C 259.105469 129.035156 258.320312 113.71875 251.902344 99.351562 C 247.769531 90.183594 242.746094 81.40625 238.109375 72.183594 Z M 327.886719 158.882812 C 315.382812 162.851562 304.160156 167.773438 295.058594 176.546875 C 288.863281 182.53125 282.832031 188.679688 276.46875 194.492188 C 270.046875 200.363281 263.066406 205.558594 255.140625 209.363281 C 248.886719 212.378906 242.242188 213.441406 235.488281 214.167969 C 231.859375 214.558594 228.507812 215.679688 225.714844 218.695312 C 227 218.863281 227.894531 218.976562 228.789062 219.03125 C 244.644531 220.039062 260.332031 218.976562 275.574219 214.226562 C 299.582031 206.734375 317 192.089844 325.375 167.773438 C 326.269531 165.035156 326.9375 162.183594 327.886719 158.882812 Z M 149.449219 218.695312 C 145.65625 215.789062 141.859375 214.785156 137.894531 214.226562 C 126.394531 212.605469 115.5625 209.136719 106.628906 201.425781 C 100.65625 196.28125 95.070312 190.691406 89.433594 185.15625 C 81.726562 177.554688 73.96875 170.0625 64.253906 165.144531 C 59.339844 162.683594 54.089844 161.007812 48.285156 158.773438 C 51.410156 174.3125 57.886719 186.890625 68.773438 196.953125 C 75.863281 203.546875 84.183594 208.242188 93.230469 211.542969 C 111.152344 218.082031 129.742188 219.648438 149.449219 218.695312 Z M 283.222656 87.835938 C 277.472656 91.636719 272.503906 95.773438 269.097656 101.476562 C 267.535156 104.046875 267.144531 106.449219 268.09375 109.582031 C 272.390625 123.554688 272.949219 137.753906 269.375 152.007812 C 266.417969 163.746094 261.726562 174.480469 250.953125 181.523438 C 247.714844 183.648438 245.480469 186.777344 243.917969 190.859375 C 244.753906 190.636719 245.203125 190.523438 245.59375 190.355469 C 256.980469 186.609375 265.023438 178.617188 271.664062 169.167969 C 281.546875 155.082031 285.957031 139.097656 286.738281 121.992188 C 287.132812 110.585938 285.957031 99.351562 283.222656 87.835938 Z M 130.914062 189.238281 C 131.082031 189.015625 131.25 188.789062 131.417969 188.566406 C 129.296875 186.609375 127.117188 184.710938 125.050781 182.699219 C 121.421875 179.0625 116.902344 175.820312 114.445312 171.460938 C 103.335938 151.839844 100.710938 131.046875 107.578125 109.359375 C 108.246094 107.234375 108.246094 105.386719 107.296875 103.488281 C 103.949219 96.949219 98.589844 92.417969 92.445312 88.449219 C 92.167969 89.066406 91.945312 89.34375 91.890625 89.738281 C 86.863281 113.160156 87.367188 136.132812 97.527344 158.269531 C 102.496094 169.058594 109.363281 178.449219 119.414062 185.15625 C 122.875 187.449219 126.671875 189.183594 130.914062 189.238281 Z M 307.0625 124.058594 C 303.320312 127.414062 299.078125 131.4375 294.554688 135.070312 C 292.714844 136.582031 291.988281 138.203125 291.652344 140.382812 C 289.195312 155.640625 282.273438 168.667969 271.722656 179.789062 C 263.011719 188.957031 252.683594 195.609375 241.125 200.53125 C 237.496094 202.09375 235.488281 205.167969 234.257812 209.136719 C 278.644531 199.46875 305.445312 166.988281 307.0625 124.058594 Z M 68.550781 122.941406 C 69.945312 168.945312 99.871094 200.808594 141.410156 209.082031 C 139.902344 205.167969 137.726562 202.316406 134.097656 200.363281 C 127.007812 196.5625 119.691406 192.984375 113.273438 188.175781 C 97.082031 175.933594 86.917969 159.722656 83.738281 139.375 C 83.570312 138.371094 83.125 137.140625 82.453125 136.46875 C 77.929688 131.886719 73.242188 127.46875 68.550781 122.941406 Z M 188.699219 170.289062 C 188.367188 170.34375 188.085938 170.34375 187.75 170.398438 C 187.359375 171.070312 186.914062 171.742188 186.578125 172.46875 C 180.660156 186.21875 178.203125 200.585938 179.65625 215.511719 C 179.992188 219.199219 181.21875 223 182.949219 226.300781 C 185.292969 230.882812 190.820312 230.660156 193.277344 226.019531 C 194.394531 223.894531 195.234375 221.546875 195.625 219.253906 C 197.523438 209.136719 196.515625 199.019531 194.285156 189.070312 C 192.777344 182.753906 190.542969 176.546875 188.699219 170.289062 Z M 356.53125 179.175781 C 355.355469 179.0625 355.023438 179.007812 354.632812 178.953125 C 340.785156 177.777344 329.953125 184.152344 320.070312 192.871094 C 314.878906 197.511719 309.910156 202.429688 304.550781 206.847656 C 300.976562 209.808594 296.84375 212.15625 292.378906 215.175781 C 319.347656 212.714844 339.78125 199.96875 356.53125 179.175781 Z M 82.175781 214.058594 C 71.957031 209.695312 65.089844 201.925781 57.664062 194.941406 C 52.527344 190.132812 47.222656 185.4375 40.636719 182.53125 C 34.214844 179.679688 27.625 178.058594 20.425781 178.671875 C 32.039062 198.070312 59.5625 214.671875 82.175781 214.058594 Z M 204.445312 229.988281 C 227.558594 237.703125 250.894531 236.585938 274.792969 236.695312 C 270.160156 232 264.964844 229.875 259.660156 228.144531 C 248.605469 224.453125 237.160156 222.890625 225.660156 221.4375 C 218.625 220.542969 212.929688 223.953125 207.179688 227.136719 C 206.175781 227.585938 205.617188 228.648438 204.445312 229.988281 Z M 102.386719 236.082031 C 102.496094 236.304688 102.664062 236.472656 102.777344 236.695312 C 103.390625 236.695312 104.003906 236.695312 104.617188 236.695312 C 111.316406 236.527344 118.019531 236.527344 124.71875 236.191406 C 134.710938 235.746094 144.761719 235.355469 154.753906 234.460938 C 160.449219 233.957031 165.976562 232.335938 171.394531 228.871094 C 167.371094 226.859375 163.742188 225.070312 160.113281 223.226562 C 156.765625 221.492188 153.359375 220.933594 149.617188 221.546875 C 142.582031 222.664062 135.4375 223.390625 128.402344 224.679688 C 120.808594 226.019531 113.382812 227.976562 106.796875 232.222656 C 105.175781 233.285156 103.835938 234.796875 102.386719 236.082031 Z M 167.148438 104.828125 C 167.539062 104.605469 168.210938 104.496094 168.488281 104.101562 C 171.503906 99.964844 174.464844 95.828125 177.367188 91.636719 C 177.644531 91.246094 177.476562 90.40625 177.253906 89.847656 C 174.574219 81.6875 171.226562 73.804688 165.699219 67.152344 C 163.074219 64.023438 160.003906 61.453125 155.925781 60.054688 C 153.695312 66.539062 153.246094 72.96875 155.761719 79.117188 C 159.222656 87.667969 163.296875 96.109375 167.148438 104.828125 Z M 208.800781 104.160156 C 211.089844 98.847656 213.042969 94.265625 215.109375 89.738281 C 216.617188 86.4375 218.402344 83.308594 219.796875 79.953125 C 222.703125 73.023438 222.253906 66.257812 217.898438 59.664062 C 216.167969 61.058594 214.496094 62.121094 213.15625 63.464844 C 205.839844 70.785156 201.316406 79.785156 198.078125 89.457031 C 197.855469 90.070312 197.96875 91.023438 198.359375 91.527344 C 201.765625 95.773438 205.226562 99.910156 208.800781 104.160156 Z M 187.472656 49.097656 C 179.042969 58.488281 178.148438 77.605469 182.503906 83.253906 C 185.015625 79.058594 184.792969 73.582031 188.53125 69.78125 C 190.152344 74.476562 190.261719 79.453125 194.285156 83.53125 C 196.683594 70.730469 197.132812 59.046875 187.472656 49.097656 Z M 136.5 245.359375 C 137 245.527344 137.222656 245.640625 137.445312 245.640625 C 147.496094 245.640625 157.492188 245.863281 167.484375 245.527344 C 171.058594 245.417969 174.796875 244.296875 178.148438 242.902344 C 182.390625 241.113281 184.679688 237.480469 185.292969 232.726562 C 182.222656 231.777344 179.375 230.882812 176.527344 230.15625 C 175.859375 229.988281 174.796875 230.269531 174.40625 230.714844 C 171.671875 234.070312 167.929688 235.691406 163.96875 236.640625 C 158.664062 237.925781 153.246094 238.820312 147.886719 239.882812 C 143.8125 240.722656 139.792969 242.007812 136.5 245.359375 Z M 239.058594 244.914062 C 237.386719 243.90625 236.378906 242.957031 235.207031 242.621094 C 230.460938 241.335938 225.714844 240.164062 220.914062 239.101562 C 213.710938 237.535156 206.121094 236.921875 200.984375 230.492188 C 200.761719 230.210938 200.144531 230.101562 199.753906 230.210938 C 196.515625 230.882812 193.277344 231.609375 189.984375 232.335938 C 191.101562 237.648438 193.558594 241.839844 198.414062 243.628906 C 202.15625 245.027344 206.34375 245.976562 210.308594 245.976562 C 219.574219 246.03125 228.84375 245.359375 239.058594 244.914062 Z M 239.058594 244.914062 " fill-opacity="1" fill-rule="nonzero"/></g><path fill="#ffffff" d="M 132.703125 93.148438 C 133.875 98.234375 135.101562 103.375 136.332031 108.742188 C 137.390625 108.296875 138.171875 107.960938 139.179688 107.570312 C 141.410156 112.878906 143.589844 118.191406 145.878906 123.613281 C 136.777344 131.660156 132.421875 142.28125 129.628906 153.796875 C 129.351562 153.851562 129.074219 153.910156 128.792969 153.964844 C 127.789062 151.339844 126.449219 148.824219 125.835938 146.082031 C 123.601562 136.523438 124.214844 126.855469 124.773438 117.070312 C 125.667969 117.183594 126.449219 117.296875 126.949219 117.40625 C 128.515625 109.246094 130.023438 101.140625 131.585938 93.035156 C 131.976562 93.089844 132.367188 93.089844 132.703125 93.148438 Z M 132.703125 93.148438 " fill-opacity="1" fill-rule="nonzero"/><path fill="#ffffff" d="M 230.40625 124.5625 C 232.695312 118.804688 234.929688 113.160156 237.273438 107.289062 C 238.277344 107.960938 239.003906 108.464844 240.289062 109.300781 C 241.347656 104.046875 242.355469 98.960938 243.359375 93.929688 C 243.636719 93.875 243.972656 93.875 244.253906 93.816406 C 245.535156 99.238281 246.875 104.660156 248.105469 110.140625 C 248.496094 111.871094 248.496094 113.660156 248.773438 115.394531 C 248.941406 116.457031 248.550781 118.023438 250.5625 117.910156 C 250.785156 117.910156 251.34375 118.691406 251.34375 119.082031 C 251.734375 129.089844 252.792969 139.207031 249.835938 149.046875 C 249.277344 150.835938 248.273438 152.457031 247.15625 154.132812 C 243.695312 142.898438 240.679688 131.71875 230.40625 124.5625 Z M 230.40625 124.5625 " fill-opacity="1" fill-rule="nonzero"/><path fill="#ffffff" d="M 261.113281 207.90625 C 276.746094 197.679688 292.378906 187.449219 308.234375 177.050781 C 307.453125 192.648438 278.644531 211.988281 261.617188 208.746094 C 261.394531 208.46875 261.226562 208.1875 261.113281 207.90625 Z M 261.113281 207.90625 " fill-opacity="1" fill-rule="nonzero"/><path fill="#ffffff" d="M 67.324219 175.820312 C 74.523438 182.136719 82.957031 185.773438 90.996094 190.132812 C 95.683594 192.648438 99.371094 197.0625 103.558594 200.585938 C 106.90625 203.378906 110.3125 206.007812 113.441406 208.523438 C 99.035156 213.554688 71.453125 194.492188 67.324219 175.820312 Z M 67.324219 175.820312 " fill-opacity="1" fill-rule="nonzero"/><path fill="#ffffff" d="M 269.933594 159.332031 C 271.273438 153.851562 273.117188 148.710938 273.675781 143.457031 C 274.289062 137.53125 273.5625 131.4375 273.621094 125.402344 C 273.621094 123.667969 273.898438 121.710938 274.738281 120.203125 C 277.582031 115.113281 280.710938 110.195312 284.226562 104.4375 C 284.226562 109.917969 284.339844 114.835938 284.226562 119.753906 C 283.894531 130.207031 283.054688 140.550781 278.140625 150.109375 C 276.1875 153.796875 273.675781 157.09375 269.933594 159.332031 Z M 269.933594 159.332031 " fill-opacity="1" fill-rule="nonzero"/><path fill="#ffffff" d="M 92.894531 106.394531 C 96.074219 110.8125 99.929688 114.890625 102.21875 119.699219 C 103.726562 122.773438 103.109375 126.910156 103.167969 130.597656 C 103.222656 136.1875 102.550781 141.777344 102.945312 147.257812 C 103.222656 150.945312 104.785156 154.523438 105.789062 157.933594 C 103.890625 157.988281 101.882812 156.703125 99.761719 153.742188 C 95.796875 148.207031 94.402344 141.777344 93.285156 135.292969 C 91.664062 125.792969 91.496094 116.289062 92.167969 106.730469 C 92.390625 106.675781 92.613281 106.507812 92.894531 106.394531 Z M 92.894531 106.394531 " fill-opacity="1" fill-rule="nonzero"/><path fill="#ffffff" d="M 258.097656 195.554688 C 264.183594 189.40625 270.996094 183.089844 277.136719 176.101562 C 283.335938 169.113281 288.863281 161.511719 294.78125 153.964844 C 294.78125 170.847656 276.242188 191.863281 258.097656 195.554688 Z M 258.097656 195.554688 " fill-opacity="1" fill-rule="nonzero"/><path fill="#ffffff" d="M 80.554688 154.019531 C 94.066406 167.605469 103.445312 183.925781 118.410156 195.554688 C 104.785156 195.832031 82.789062 171.851562 80.554688 154.019531 Z M 80.554688 154.019531 " fill-opacity="1" fill-rule="nonzero"/><path fill="#ffffff" d="M 311.585938 205.167969 C 315.828125 200.53125 320.015625 195.945312 324.316406 191.304688 C 324.707031 190.859375 325.265625 190.46875 325.820312 190.300781 C 331.347656 188.511719 336.875 186.777344 342.292969 185.101562 C 342.628906 192.480469 321.96875 206.175781 311.585938 205.167969 Z M 311.585938 205.167969 " fill-opacity="1" fill-rule="nonzero"/><path fill="#ffffff" d="M 65.425781 204.441406 C 54.871094 206.34375 34.160156 192.871094 33.769531 184.597656 C 37.0625 185.882812 40.246094 187.503906 43.59375 188.289062 C 48.453125 189.460938 52.527344 191.136719 55.488281 195.667969 C 57.328125 198.515625 60.511719 200.53125 63.191406 202.878906 C 63.804688 203.492188 64.644531 203.9375 65.425781 204.441406 Z M 65.425781 204.441406 " fill-opacity="1" fill-rule="nonzero"/><path fill="#ffffff" d="M 209.132812 229.765625 C 210.753906 228.816406 212.316406 227.472656 214.046875 227.027344 C 227 223.894531 239.617188 224.902344 251.679688 230.714844 C 252.402344 231.050781 252.960938 231.664062 253.519531 232.390625 C 238.78125 232.222656 223.984375 233.734375 209.414062 230.601562 C 209.300781 230.324219 209.246094 230.042969 209.132812 229.765625 Z M 209.132812 229.765625 " fill-opacity="1" fill-rule="nonzero"/><path fill="#ffffff" d="M 167.039062 230.269531 C 151.851562 233.566406 136.832031 231.164062 121.757812 233.34375 C 128.515625 223.953125 161.0625 221.714844 167.039062 230.269531 Z M 167.039062 230.269531 " fill-opacity="1" fill-rule="nonzero"/><path fill="#ffffff" d="M 167.761719 99.632812 C 163.242188 90.183594 160.058594 80.457031 159.945312 69.332031 C 165.585938 74.421875 170.332031 79.507812 172.507812 86.4375 C 174.183594 91.859375 172.621094 96.054688 167.761719 99.632812 Z M 167.761719 99.632812 " fill-opacity="1" fill-rule="nonzero"/><path fill="#ffffff" d="M 208.074219 99.183594 C 202.378906 94.992188 201.09375 90.964844 204.277344 85.152344 C 207.292969 79.675781 210.976562 74.589844 214.550781 69.054688 C 217.621094 75.707031 213.65625 88.898438 208.074219 99.183594 Z M 208.074219 99.183594 " fill-opacity="1" fill-rule="nonzero"/><path fill="#ffffff" d="M 155.3125 241.785156 C 164.023438 238.09375 172.957031 235.300781 182.78125 234.40625 C 181.664062 238.316406 179.152344 240.722656 175.914062 242.0625 C 169.105469 244.859375 162.179688 243.796875 155.3125 241.785156 Z M 155.3125 241.785156 " fill-opacity="1" fill-rule="nonzero"/><path fill="#ffffff" d="M 192.609375 235.300781 C 196.070312 235.300781 199.253906 234.683594 202.042969 235.410156 C 208.296875 237.085938 214.382812 239.433594 220.804688 241.617188 C 210.640625 245.640625 197.800781 243.683594 192.609375 235.300781 Z M 192.609375 235.300781 " fill-opacity="1" fill-rule="nonzero"/><path fill="#ffffff" d="M 187.863281 53.457031 C 187.863281 53.457031 183.898438 61.285156 188.367188 68.605469 C 188.367188 68.605469 192.550781 59.886719 187.863281 53.457031 Z M 187.863281 53.457031 " fill-opacity="1" fill-rule="nonzero"/><path fill="#ffffff" d="M 187.136719 182.25 C 187.136719 182.25 179.210938 206.0625 187.417969 227.753906 C 187.417969 227.753906 195.566406 217.410156 187.136719 182.25 Z M 187.136719 182.25 " fill-opacity="1" fill-rule="nonzero"/><g fill="#ffffff" fill-opacity="1"><g transform="translate(90.915746, 302.789921)"><g><path d="M 11.296875 -23.59375 C 14.785156 -23.59375 17.851562 -22.726562 20.5 -21 L 18.265625 -16.359375 C 17.046875 -17.078125 15.734375 -17.660156 14.328125 -18.109375 C 12.929688 -18.566406 11.753906 -18.796875 10.796875 -18.796875 C 9.085938 -18.796875 8.234375 -18.226562 8.234375 -17.09375 C 8.234375 -16.363281 8.65625 -15.773438 9.5 -15.328125 C 10.34375 -14.890625 11.367188 -14.507812 12.578125 -14.1875 C 13.785156 -13.863281 14.992188 -13.472656 16.203125 -13.015625 C 17.421875 -12.554688 18.453125 -11.816406 19.296875 -10.796875 C 20.140625 -9.773438 20.5625 -8.488281 20.5625 -6.9375 C 20.5625 -4.6875 19.679688 -2.929688 17.921875 -1.671875 C 16.171875 -0.421875 13.941406 0.203125 11.234375 0.203125 C 9.296875 0.203125 7.382812 -0.128906 5.5 -0.796875 C 3.613281 -1.460938 1.96875 -2.375 0.5625 -3.53125 L 2.859375 -8.09375 C 4.035156 -7.070312 5.425781 -6.234375 7.03125 -5.578125 C 8.632812 -4.921875 10.054688 -4.59375 11.296875 -4.59375 C 12.253906 -4.59375 13 -4.765625 13.53125 -5.109375 C 14.0625 -5.453125 14.328125 -5.957031 14.328125 -6.625 C 14.328125 -7.269531 14.019531 -7.8125 13.40625 -8.25 C 12.800781 -8.6875 12.039062 -9.007812 11.125 -9.21875 C 10.21875 -9.425781 9.226562 -9.707031 8.15625 -10.0625 C 7.09375 -10.414062 6.101562 -10.800781 5.1875 -11.21875 C 4.28125 -11.644531 3.519531 -12.316406 2.90625 -13.234375 C 2.300781 -14.160156 2 -15.269531 2 -16.5625 C 2 -18.695312 2.847656 -20.398438 4.546875 -21.671875 C 6.242188 -22.953125 8.492188 -23.59375 11.296875 -23.59375 Z M 11.296875 -23.59375 "/></g></g></g><g fill="#ffffff" fill-opacity="1"><g transform="translate(114.039024, 302.789921)"><g><path d="M 20.59375 -18.65625 L 8.265625 -18.65625 L 8.265625 -14.03125 L 19.390625 -14.03125 L 19.390625 -9.359375 L 8.265625 -9.359375 L 8.265625 -4.671875 L 20.96875 -4.671875 L 20.96875 0 L 2.328125 0 L 2.328125 -23.328125 L 20.59375 -23.328125 Z M 20.59375 -18.65625 "/></g></g></g><g fill="#ffffff" fill-opacity="1"><g transform="translate(138.161857, 302.789921)"><g><path d="M 23.859375 0 L 18.625 0 L 7.90625 -14.359375 L 7.90625 0 L 2.328125 0 L 2.328125 -23.328125 L 7.5625 -23.328125 L 18.328125 -8.9375 L 18.328125 -23.328125 L 23.859375 -23.328125 Z M 23.859375 0 "/></g></g></g><g fill="#ffffff" fill-opacity="1"><g transform="translate(166.016305, 302.789921)"><g/></g></g><g fill="#ffffff" fill-opacity="1"><g transform="translate(175.412522, 302.789921)"><g><path d="M 23.859375 0 L 17.9375 0 L 17.9375 -9.0625 L 8.265625 -9.0625 L 8.265625 0 L 2.328125 0 L 2.328125 -23.328125 L 8.265625 -23.328125 L 8.265625 -13.734375 L 17.9375 -13.734375 L 17.9375 -23.328125 L 23.859375 -23.328125 Z M 23.859375 0 "/></g></g></g><g fill="#ffffff" fill-opacity="1"><g transform="translate(203.266973, 302.789921)"><g><path d="M 24.59375 -11.9375 C 24.59375 -9.46875 24.1875 -7.316406 23.375 -5.484375 C 22.5625 -3.648438 21.316406 -2.222656 19.640625 -1.203125 C 17.960938 -0.179688 15.835938 0.328125 13.265625 0.328125 C 10.691406 0.328125 8.5625 -0.179688 6.875 -1.203125 C 5.195312 -2.222656 3.953125 -3.65625 3.140625 -5.5 C 2.335938 -7.34375 1.9375 -9.5 1.9375 -11.96875 C 1.9375 -14.4375 2.335938 -16.578125 3.140625 -18.390625 C 3.953125 -20.210938 5.195312 -21.628906 6.875 -22.640625 C 8.5625 -23.648438 10.703125 -24.15625 13.296875 -24.15625 C 15.867188 -24.15625 17.988281 -23.648438 19.65625 -22.640625 C 21.320312 -21.628906 22.5625 -20.207031 23.375 -18.375 C 24.1875 -16.539062 24.59375 -14.394531 24.59375 -11.9375 Z M 7.234375 -11.9375 C 7.234375 -9.445312 7.707031 -7.484375 8.65625 -6.046875 C 9.613281 -4.617188 11.148438 -3.90625 13.265625 -3.90625 C 15.421875 -3.90625 16.960938 -4.617188 17.890625 -6.046875 C 18.828125 -7.484375 19.296875 -9.445312 19.296875 -11.9375 C 19.296875 -14.425781 18.828125 -16.382812 17.890625 -17.8125 C 16.960938 -19.25 15.429688 -19.96875 13.296875 -19.96875 C 11.160156 -19.96875 9.613281 -19.25 8.65625 -17.8125 C 7.707031 -16.382812 7.234375 -14.425781 7.234375 -11.9375 Z M 6.09375 -28.859375 C 5.476562 -29.328125 4.832031 -29.84375 4.15625 -30.40625 C 3.476562 -30.976562 2.894531 -31.585938 2.40625 -32.234375 L 2.40625 -32.5625 L 6.328125 -32.5625 C 6.679688 -31.851562 7.03125 -31.25 7.375 -30.75 C 7.726562 -30.25 8.125 -29.765625 8.5625 -29.296875 L 8.5625 -28.859375 Z M 7.140625 -25.703125 L 7.140625 -26.125 C 7.691406 -26.769531 8.28125 -27.503906 8.90625 -28.328125 C 9.539062 -29.148438 10.117188 -29.941406 10.640625 -30.703125 L 15.765625 -30.703125 C 16.273438 -29.941406 16.847656 -29.148438 17.484375 -28.328125 C 18.117188 -27.503906 18.710938 -26.769531 19.265625 -26.125 L 19.265625 -25.703125 L 16.625 -25.703125 C 16.070312 -26.054688 15.503906 -26.460938 14.921875 -26.921875 C 14.347656 -27.390625 13.773438 -27.878906 13.203125 -28.390625 C 12.640625 -27.878906 12.0625 -27.390625 11.46875 -26.921875 C 10.882812 -26.460938 10.316406 -26.054688 9.765625 -25.703125 Z M 7.140625 -25.703125 "/></g></g></g><g fill="#ffffff" fill-opacity="1"><g transform="translate(231.454604, 302.789921)"><g><path d="M 23.859375 0 L 18.625 0 L 7.90625 -14.359375 L 7.90625 0 L 2.328125 0 L 2.328125 -23.328125 L 7.5625 -23.328125 L 18.328125 -8.9375 L 18.328125 -23.328125 L 23.859375 -23.328125 Z M 23.859375 0 "/></g></g></g><g fill="#ffffff" fill-opacity="1"><g transform="translate(259.309055, 302.789921)"><g><path d="M 17.828125 -11.859375 L 22.96875 -11.859375 L 22.96875 -2.765625 C 21.695312 -1.878906 20.164062 -1.148438 18.375 -0.578125 C 16.59375 -0.015625 14.890625 0.265625 13.265625 0.265625 C 9.710938 0.265625 6.742188 -0.867188 4.359375 -3.140625 C 1.984375 -5.421875 0.796875 -8.265625 0.796875 -11.671875 C 0.796875 -15.046875 2.015625 -17.863281 4.453125 -20.125 C 6.898438 -22.394531 9.972656 -23.53125 13.671875 -23.53125 C 15.398438 -23.53125 17.117188 -23.21875 18.828125 -22.59375 C 20.535156 -21.96875 21.992188 -21.125 23.203125 -20.0625 L 19.859375 -16.03125 C 19.015625 -16.8125 18.035156 -17.425781 16.921875 -17.875 C 15.816406 -18.332031 14.71875 -18.5625 13.625 -18.5625 C 11.71875 -18.5625 10.113281 -17.898438 8.8125 -16.578125 C 7.507812 -15.253906 6.859375 -13.617188 6.859375 -11.671875 C 6.859375 -9.691406 7.515625 -8.035156 8.828125 -6.703125 C 10.140625 -5.367188 11.765625 -4.703125 13.703125 -4.703125 C 14.941406 -4.703125 16.316406 -5.078125 17.828125 -5.828125 Z M 17.828125 -11.859375 "/></g></g></g></svg>